<?xml version="1.0" encoding="UTF-8" standalone="no"?>
<!-- Created with Inkscape (http://www.inkscape.org/) -->

<svg
   width="383.70633"
   height="94.233643"
   viewBox="0 0 101.52229 24.932651"
   version="1.1"
   id="svg1"
   xmlns="http://www.w3.org/2000/svg"
   xmlns:svg="http://www.w3.org/2000/svg">
  <defs
     id="defs1" />
  <g
     id="layer3"
     transform="translate(-15.522896,-0.79129655)">
    <g
       id="text1"
       style="font-size:48px;line-height:0.2;font-family:Lexend;-inkscape-font-specification:Lexend;letter-spacing:-4.61993px;white-space:pre;fill:#23b01c;fill-opacity:1;stroke:#23b01c;stroke-width:0;stroke-linecap:round;stroke-linejoin:round;stroke-miterlimit:0;stroke-opacity:1"
       transform="matrix(0.63373402,0,0,0.63373402,16.252464,11.708205)"
       aria-label="TIPPER">
      <path
         style="-inkscape-font-specification:'Lexend, @wght=700';font-variation-settings:'wght' 700;letter-spacing:-4.2353px;fill:#23b01c;fill-opacity:1;stroke:#23b01c;stroke-opacity:1"
         d="M 11.52,19.2 V -7.1999999 H 1.536 V -14.4 h 28.368 v 7.2000001 H 19.68 V 19.2 Z"
         id="path15" />
      <path
         style="-inkscape-font-specification:'Lexend, @wght=700';font-variation-settings:'wght' 700;letter-spacing:-7.01075px;fill:#23b01c;fill-opacity:1;stroke:#23b01c;stroke-opacity:1"
         d="m 30.756733,19.2 v -6.864 h 5.664 V -7.5359999 h -5.664 V -14.4 h 19.536 v 6.8640001 h -5.712 V 12.336 h 5.712 V 19.2 Z"
         id="path16" />
      <path
         style="-inkscape-font-specification:'Lexend, @wght=700';font-variation-settings:'wght' 700;letter-spacing:-5.54216px;fill:#23b01c;fill-opacity:1;stroke:#23b01c;stroke-opacity:1"
         d="m 51.058,19.2 v -33.6 h 14.496 q 3.168,0 5.616,1.44 2.496,1.44 3.936,3.9360001 1.488,2.496 1.488,5.616 0,3.26399997 -1.488,5.856 -1.44,2.544 -3.936,4.032 -2.448,1.488 -5.616,1.488 H 59.218 V 19.2 Z M 59.074,0.81600007 h 5.328 q 1.056,0 1.92,-0.528 0.864,-0.528 1.392,-1.43999997 0.528,-0.912 0.528,-2.112 0,-1.248 -0.528,-2.112 -0.528,-0.864 -1.392,-1.344 -0.864,-0.48 -1.92,-0.48 H 59.074 Z M 77.291871,19.2 v -33.6 h 14.496 q 3.168,0 5.616,1.44 2.496,1.44 3.935999,3.9360001 1.488,2.496 1.488,5.616 0,3.26399997 -1.488,5.856 -1.439999,2.544 -3.935999,4.032 -2.448,1.488 -5.616,1.488 h -6.336 V 19.2 Z m 8.016,-18.38399993 h 5.328 q 1.056,0 1.92,-0.528 0.864,-0.528 1.392,-1.43999997 0.528,-0.912 0.528,-2.112 0,-1.248 -0.528,-2.112 -0.528,-0.864 -1.392,-1.344 -0.864,-0.48 -1.92,-0.48 h -5.328 z"
         id="path17" />
      <path
         style="-inkscape-font-specification:'Lexend, @wght=700';font-variation-settings:'wght' 700;letter-spacing:-6.49937px;fill:#23b01c;fill-opacity:1;stroke:#23b01c;stroke-opacity:1"
         d="m 103.52574,19.2 v -33.6 h 23.424 v 6.9600001 h -15.504 V 12.24 h 15.984 v 6.96 z m 3.84,-13.7759999 v -6.624 h 17.424 v 6.624 z M 127.98639,19.2 v -33.6 h 15.12 q 3.216,0 5.808,1.392 2.64,1.392 4.128,3.8400001 1.488,2.4 1.488,5.472 0,3.16799997 -1.488,5.712 -1.488,2.496 -4.08,3.936 -2.592,1.44 -5.856,1.44 h -7.344 V 19.2 Z m 18.624,0 -8.544,-15.1679999 8.352,-1.2 9.504,16.3679999 z m -10.848,-18.0479999 h 6.624 q 1.248,0 2.16,-0.52800003 0.96,-0.576 1.44,-1.584 0.528,-1.00799997 0.528,-2.30399997 0,-1.296 -0.576,-2.256 -0.576,-1.008 -1.68,-1.536 -1.056,-0.528 -2.592,-0.528 h -5.904 z"
         id="path18" />
    </g>
    <path
       style="font-variation-settings:'wght' 700;fill:none;fill-opacity:1;stroke:#23b01c;stroke-width:0.525119;stroke-linecap:square;stroke-linejoin:miter;stroke-miterlimit:0;stroke-dasharray:none;stroke-opacity:1"
       d="M 15.785455,1.5789752 V 10.085721"
       id="path14" />
    <path
       style="font-variation-settings:'wght' 700;fill:none;fill-opacity:1;stroke:#23b01c;stroke-width:0.525119;stroke-linecap:square;stroke-linejoin:miter;stroke-miterlimit:0;stroke-dasharray:none;stroke-opacity:1"
       d="m 15.785455,1.0538561 h 8.506746"
       id="path14-9" />
    <path
       style="font-variation-settings:'wght' 700;fill:none;fill-opacity:1;stroke:#23b01c;stroke-width:0.525119;stroke-linecap:square;stroke-linejoin:miter;stroke-miterlimit:0;stroke-dasharray:none;stroke-opacity:1"
       d="M 116.78263,24.936271 V 16.429525"
       id="path14-7" />
    <path
       style="font-variation-settings:'wght' 700;fill:none;fill-opacity:1;stroke:#23b01c;stroke-width:0.525119;stroke-linecap:square;stroke-linejoin:miter;stroke-miterlimit:0;stroke-dasharray:none;stroke-opacity:1"
       d="m 116.78263,25.46139 h -8.50674"
       id="path14-9-0" />
  </g>
</svg>
